<svg xmlns="http://www.w3.org/2000/svg" width="256" height="256" viewBox="0 0 100 100"><rect width="100" height="100" rx="20" fill="#000000"></rect><path fill="#fff" d="M38.56 76.52L38.56 49.92L38.56 33.13L37.95 33.13L26.78 60.41L15.61 33.13L15.00 33.13L15.00 49.92L15.00 76.52L9.15 76.52L9.15 23.48L17.36 23.48L26.71 46.88L27.16 46.88L36.51 23.48L44.41 23.48L44.41 76.52L38.56 76.52ZM62.81 76.52L56.42 76.52L56.42 23.48L75.73 23.48Q83.10 23.48 86.97 27.50Q90.85 31.53 90.85 38.75L90.85 38.75Q90.85 45.97 86.97 50Q83.10 54.03 75.73 54.03L75.73 54.03L62.81 54.03L62.81 76.52ZM62.81 29.02L62.81 48.48L75.57 48.48Q79.60 48.48 81.84 46.47Q84.09 44.45 84.09 40.73L84.09 40.73L84.09 36.78Q84.09 33.05 81.84 31.04Q79.60 29.02 75.57 29.02L75.57 29.02L62.81 29.02Z"></path></svg>